<svg width="21" height="12" viewBox="0 0 21 12" fill="none" xmlns="http://www.w3.org/2000/svg">
<path d="M1.41799 0.720717C1.26147 0.566309 1.05045 0.479738 0.830589 0.479738C0.610727 0.479738 0.399708 0.566309 0.243191 0.720717C0.166092 0.796646 0.10486 0.88715 0.0630684 0.986964C0.0212765 1.08678 -0.000245986 1.19391 -0.000245976 1.30212C-0.000245967 1.41033 0.0212766 1.51746 0.0630685 1.61727C0.10486 1.71708 0.166092 1.80759 0.243191 1.88352L9.73279 11.2795C9.88931 11.4339 10.1003 11.5205 10.3202 11.5205C10.5401 11.5205 10.7511 11.4339 10.9076 11.2795L20.3972 1.88352C20.4743 1.80759 20.5355 1.71708 20.5773 1.61727C20.6191 1.51745 20.6406 1.41033 20.6406 1.30212C20.6406 1.19391 20.6191 1.08678 20.5773 0.986962C20.5355 0.887148 20.4743 0.796644 20.3972 0.720716C20.2407 0.566307 20.0297 0.479736 19.8098 0.479736C19.5899 0.479736 19.3789 0.566307 19.2224 0.720716L10.3196 9.28992L1.41799 0.720717Z" fill="#29CC7A"/>
</svg>

